<svg xmlns="http://www.w3.org/2000/svg" width="300" height="100"><text style="line-height:1.25;-inkscape-font-specification:'Titan One'" x="74.167" y="62.925" font-weight="400" font-size="55.015" font-family="Titan One" letter-spacing="0" word-spacing="0" fill="#80a" stroke="#1a1a1a" paint-order="stroke markers fill"><tspan x="74.167" y="62.925"><tspan font-size="58.682">F</tspan><tspan font-size="51.347">EED</tspan><tspan font-size="58.682">M</tspan><tspan font-size="51.347">E</tspan></tspan></text><text style="line-height:1.25" x="150.734" y="79.537" font-weight="400" font-size="61.659" font-family="sans-serif" letter-spacing="0" word-spacing="0" fill="#55d400" stroke="#1a1a1a" paint-order="stroke markers fill"><tspan x="150.734" y="79.537" style="-inkscape-font-specification:'Lily Script One'" font-size="32.885" font-family="Lily Script One">Jefferson</tspan></text><path fill="#fff" d="M24.41 75.293h25.418v10.134H24.41z"/><g stroke="#000"><path d="M51.69 76.395s-.51 8.273-3.04 11.271c-2.895 3.429-7.06 4.807-12.295 5.796-5.298-1.25-8.212-2.221-10.815-4.832-2.936-2.944-5.812-12.616-5.812-12.616l4.683-.72s1.337 5.474 3.282 7.36c2.23 2.162 6.23 3.556 8.668 3.618 2.18.057 4.293-1.39 6.078-2.683 2.385-1.725 5.87-6.536 5.87-6.536z" fill="#806600" stroke-width="1.94692"/><path d="M31.4 79.035l8.34-.662-3.856 2.226zm5.502 7.196L35.884 80.6m-10.368-1.692l-4.273 1.803m5.25.235l-3.683 3.363m5.07-1.527l-3.284 4.743m4.879-3.487l-1.354 6.56m4.42-5.104l-.783 6.711m3.024-6.103l.21 7.009m3.503-7.25l1.471 6.823m1.173-8.198l2.137 7.044m.146-8.76l3.805 6.262m-1.893-8.288l4.494 4.684m-2.872-6.612l4.135 2.04" fill="none" stroke-width="1.94692"/></g><path d="M32.027 69.55c-3.205.726-7.638 2.453-10.282 4.517-3.255-.035-7.186.136-11.214-.074-.413.88.4.857 1.05.954 4.25.798 8.562 1.528 12.771 2.365 8.47-1.763 15.636-2.435 24.126.337 4.42-.335 9.423-1.29 13.983-1.972.242-.933-.555-.779-1.207-.775l-9.215-.198c-3.479-3.174-7.2-4.45-11.253-4.985-2.617.51-5.295.534-7.906-.023a38.9 38.9 0 01-.853-.146z" color="#000"/><path d="M5.83 28.454c1.343-6.06 7.6-8.967 12.917-10.836 6.3-2.06 12.704-3.802 18.897-6.191 8.117-2.718 17.168-5.14 25.569-2.233 6.518 2.583 11.58 7.684 16.696 12.294 3.42 3.242 6.36 8.495 3.94 13.142-2.292 4.163-6.313 7.272-10.588 9.207-3.678 1.363-7.65 1.739-11.468 2.332l-6.59 4.075 2.03 9.246c-5.856 2.872-11.9 6.098-18.528 6.476-7.367-.384-14.359-3.154-21.153-5.816l-.676-16.508c-2.336-3.368-4.636-6.822-7.963-9.31-1.635-1.5-3.621-3.43-3.084-5.878z" fill="#fff" stroke="#000" stroke-width="2.3363039999999997" stroke-linecap="round" stroke-linejoin="round" paint-order="markers fill stroke"/><path d="M16.876 43.642s13.087 4.87 19.987 5.997c6.024.981 18.093 1.05 18.093 1.05" fill="none" stroke="#000" stroke-width="2.3363039999999997" stroke-linecap="round" stroke-linejoin="round" paint-order="markers fill stroke"/><path d="M21.925 30.745s-1.512 4.406-1.1 6.6c.643 3.419 5.368 9.183 5.368 9.183M29.903 38.03s-.942 3.148-.545 4.67c.615 2.346 4.31 6.08 4.31 6.08" fill="none" stroke="#000" stroke-width="2.3363039999999997" stroke-linecap="round" paint-order="markers fill stroke"/></svg>
