<svg xmlns="http://www.w3.org/2000/svg" height="48" width="48"><path d="M13.258 37.214h13.055v5.205H13.258z" fill="#fff"/><g stroke="#000"><path d="M27.27 37.78s-.262 4.249-1.562 5.789c-1.487 1.761-3.626 2.469-6.315 2.977-2.721-.642-4.218-1.141-5.555-2.482-1.508-1.512-2.985-6.48-2.985-6.48l2.405-.37s.687 2.812 1.686 3.781c1.145 1.11 3.2 1.826 4.452 1.858 1.12.029 2.205-.714 3.122-1.378 1.225-.886 3.015-3.357 3.015-3.357z" fill="#806600"/><path d="M16.848 39.136l4.284-.34-1.981 1.143zm2.826 3.696l-.523-2.893m-5.325-.869l-2.195.926m2.697.121l-1.892 1.727m2.604-.784l-1.687 2.436m2.506-1.791l-.695 3.369m2.27-2.621l-.402 3.447m1.553-3.135l.108 3.6m1.799-3.724l.756 3.505m.602-4.211l1.098 3.618m.075-4.499l1.954 3.216m-.972-4.257l2.308 2.406m-1.475-3.396l2.124 1.048" fill="none"/></g><path d="M3.714 13.156c.69-3.113 3.904-4.606 6.635-5.566 3.236-1.058 6.525-1.953 9.706-3.18 4.169-1.396 8.818-2.64 13.133-1.147 3.348 1.327 5.948 3.947 8.576 6.315 1.756 1.665 3.266 4.363 2.023 6.75-1.177 2.138-3.242 3.735-5.438 4.729-1.889.7-3.929.893-5.89 1.198l-3.385 2.093 1.043 4.749c-3.008 1.475-6.113 3.132-9.517 3.326-3.784-.197-7.375-1.62-10.865-2.987l-.347-8.479c-1.2-1.73-2.381-3.504-4.09-4.782-.84-.771-1.86-1.762-1.584-3.019z" fill="#fff" stroke="#000" stroke-width="1.2" stroke-linecap="round" stroke-linejoin="round" paint-order="markers fill stroke"/><path d="M9.388 20.957s6.722 2.501 10.266 3.08c3.094.504 9.293.54 9.293.54" fill="none" stroke="#000" stroke-width="1.2" stroke-linecap="round" stroke-linejoin="round" paint-order="markers fill stroke"/><path d="M11.981 14.332s-.777 2.263-.565 3.39c.33 1.756 2.757 4.717 2.757 4.717m1.906-4.365s-.484 1.617-.28 2.399c.316 1.205 2.214 3.123 2.214 3.123" fill="none" stroke="#000" stroke-width="1.2" stroke-linecap="round" paint-order="markers fill stroke"/><path d="M17.17 34.264c-1.646.373-3.923 1.26-5.281 2.32-1.672-.018-3.691.07-5.76-.038-.212.452.205.44.539.49 2.183.41 4.398.785 6.56 1.215 4.35-.906 8.031-1.251 12.392.173 2.27-.172 4.84-.663 7.182-1.013.124-.479-.285-.4-.62-.398l-4.733-.102c-1.787-1.63-3.698-2.285-5.78-2.56-1.344.262-2.72.274-4.061-.012a19.98 19.98 0 01-.438-.075z" color="#000"/><path d="M17.294 35.304c1.224.264 3.002.321 4.41.077C23 35.695 25 36.309 26 37c-.502.15-.618.244-1.1.35-3.956-1.416-7.532-.94-11.212-.029-.308-.039-.403-.2-.688-.321 1-.67 3-1.534 4.294-1.696z" color="#000" fill="#806600"/></svg>