<svg xmlns="http://www.w3.org/2000/svg" xmlns:xlink="http://www.w3.org/1999/xlink" width="1536" height="512">
    <path d="M479 284q0 4-20 6-20 3-37 3-18 0-23-3-6-2-6-6V90q0-8 8-11t30-3h114q6 0 6 23t-3 35q-3 12-7 12l-62-3v20l54-1q5 0 6 5 2 4 2 18t-3 27q-3 13-9 13l-50-2z" fill="#504" stroke="#1a1a1a" stroke-width="5" paint-order="stroke markers fill"/>
    <path id="a" d="M706 293H593q-13 0-18-2-4-2-4-6V116q0-7 6-10t23-3h107q6 0 6 19 0 18-3 28-2 10-6 10-17 0-59-4v18l52-2q7 0 7 17t-3 26q-2 8-7 8l-49-1v17l64-3q6 0 6 19 0 18-2 28-3 10-7 10z" fill="#504" stroke="#1a1a1a" stroke-width="5" stroke-miterlimit="4" stroke-dasharray="none" paint-order="stroke markers fill"/>
    <path d="M982 293h-63q-13 0-18-2t-5-6V116q0-7 6-10t21-3h60q51 0 71 20 19 20 19 73 0 54-20 75-21 22-71 22zm-2-150l-9 1v108l10 1q8 0 12-13t4-44q0-32-4-43-4-10-13-10z" fill="#504" stroke="#1a1a1a" stroke-width="5" paint-order="stroke markers fill"/>
    <path d="M1140 293h-22q-14 0-20-3-5-2-5-6V91q0-7 19-11t40-4q21 0 31 5 9 6 10 12l21 81h3l19-77q3-9 20-15 18-6 40-6 21 0 31 3 10 4 10 9v196q0 4-17 6-17 3-42 3t-25-9q0-24 5-86h-3l-16 80q-1 4-8 6-6 3-19 3t-16-2q-3-2-4-7l-16-80h-3q5 63 5 86 0 8-38 9z" fill="#504" stroke="#1a1a1a" stroke-width="5" paint-order="stroke markers fill"/>
    <use xlink:href="#a" transform="translate(163)" width="100%" height="100%"/>
    <path d="M881 277l-6-1q-2 0-5 3l-3 9-8 58q21-9 27-13l6 11-12 7-14 5-9 4-6 39q-2 16-11 24-9 7-21 7-11 0-17-8-7-8-7-18 0-26 39-46l1-14 7-50q-10 4-20 4t-17-6q-6-5-6-14 0-10 6-15 7-5 17-5 6 0 18 4 11 4 18 4 11 0 19-6 4 6 4 14v3zm-66 5q0 3 3 4 3 2 8 2 6 0 15-5l-13-3-9-2q-4 0-4 4zm17 90q-24 15-24 31 0 4 2 7 3 4 7 4t7-3q3-2 4-8z" fill="#55d400" stroke="#1a1a1a" stroke-width="5" paint-order="stroke markers fill"/>
    <path id="c" d="M901 347q11-2 16-8t5-12q0-6-3-8t-7-2q-8 0-14 9t-6 21q0 12 6 18t14 6q13 0 24-9 12-9 19-23l7 9q-6 12-20 25l-16 9q-10 4-20 4-17 0-26-10-11-11-11-29 0-17 13-30t31-13q13 0 21 6t8 15q0 13-10 21t-28 11z" fill="#55d400" stroke="#1a1a1a" stroke-width="5" stroke-miterlimit="4" stroke-dasharray="none" paint-order="stroke markers fill"/>
    <path id="b" d="M993 385q9 16 9 27 0 10-6 17-6 6-17 6-10 0-17-5-6-6-6-16v-8l6-45q-10-14-17-21 6-8 10-8 2 0 3 2l6 6 6-56q1-11 5-17 6-9 20-9 10 0 16 5 5 6 5 16 0 13-9 26-8 13-20 22l-4 41q3 3 8 3 11 0 17-9 7-9 13-25l4 4 3 2q-3 19-13 29-9 10-22 13zm8-113h-2q-4 0-6 6l-3 27-1 6q7-7 12-15 4-9 4-15 0-7-4-9zm-22 138v4l1 4q2 2 5 2l5-2q2-2 2-7 0-9-11-24z" fill="#55d400" stroke="#1a1a1a" stroke-width="5" stroke-miterlimit="4" stroke-dasharray="none" paint-order="stroke markers fill"/>
    <use xlink:href="#b" transform="translate(67)" width="100%" height="100%"/>
    <use xlink:href="#c" transform="translate(212)" width="100%" height="100%"/>
    <path d="M1209 326q0-7-6-7-7 0-11 9 18 14 18 31 0 13-7 20t-18 7q-11 0-16-7t-5-17v-5l6-51 12-2q10 0 10 8v0q7-8 17-8 8 0 12 4 4 3 4 9t-4 9q-4 4-11 4h-1v-4zm-10 33q0-10-10-20l-3 24q0 8 6 8 7 0 7-12zM1299 334q13 9 13 22 0 14-11 22-10 8-26 8-10 0-17-5-6-5-6-13t5-12q5-4 12-5-3 5-3 9 0 5 3 8t8 3q5 0 8-4t3-8q0-8-7-14l-9-7-6-3-1-1-9 10-9 10q-9 10-10 17l-1 5q0 4 3 8 2 4 5 6l6 3 6 2h2l-4 3-14 2q-7 0-14-5-10-7-10-19 0-8 4-15 7-13 32-36-6-6-6-13t5-12q5-5 12-5t12 5q3 4 3 9t-4 12q18 8 25 13zm-37-19q4-4 4-6 0-4-3-5-4 0-4 5 0 3 3 6zM1359 304q15 0 25 10t10 24q0 22-12 35-13 13-31 13-17 0-28-10-10-11-10-26 0-21 13-33 13-13 33-13zm-4 14q-8 0-13 9t-6 23q0 9 4 16 4 6 12 6t13-9q6-9 6-20t-4-18q-4-7-12-7zM1449 366l4-37q0-5-2-8-3-3-8-3-6 0-9 5-4 5-5 12l-6 50h-23l9-79 11-2q11 0 12 8 8-8 19-8 12 0 18 6 7 6 7 14l-1 9-4 30q0 8 5 8 11 0 17-24 6 6 7 9-9 30-31 30-10 0-15-7-5-6-5-13z" fill="#55d400" stroke="#1a1a1a" stroke-width="5" paint-order="stroke markers fill"/>
    <path d="M127 381h130v52H127z" fill="#fff"/>
    <path d="M267 386s-3 43-16 59c-14 18-36 25-63 30-27-7-42-12-55-25-15-15-30-65-30-65l24-4s7 28 17 38c11 11 32 18 44 19 11 0 22-8 31-14 13-9 31-34 31-34z" fill="#806600" stroke="#000" stroke-width="10"/>
    <path d="M163 400l43-3-20 11zm28 37l-5-29m-53-9l-22 10m27 1l-19 17m26-7l-17 24m25-18l-7 34m23-26l-4 34m15-31l1 36m18-38l8 36m6-43l11 37m1-46l19 33m-10-43l23 24m-14-34l21 11" fill="none" stroke="#000" stroke-width="10"/>
    <path d="M166 351c-16 4-39 13-53 23H56c-3 5 2 4 5 5l66 12c43-9 80-12 123 2 23-2 49-7 72-10 2-5-3-4-6-4l-47-1a99 99 0 00-58-26c-13 3-27 3-41 0a200 201 0 01-4-1z" color="#000"/>
    <path d="M31 138c7-31 39-46 67-56 32-11 65-20 97-32 42-14 88-27 131-11 34 13 60 39 86 63 17 17 33 44 20 68-12 22-32 38-54 48-19 7-40 9-59 12l-34 21 10 48c-30 15-61 32-95 33-38-2-73-16-108-30l-4-85c-12-18-24-35-41-48-8-8-18-18-16-31z" fill="#fff" stroke="#000" stroke-width="12" stroke-linecap="round" stroke-linejoin="round" paint-order="markers fill stroke"/>
    <path d="M88 217s67 25 103 31c31 5 93 5 93 5" fill="none" stroke="#000" stroke-width="12" stroke-linecap="round" stroke-linejoin="round" paint-order="markers fill stroke"/>
    <path d="M114 150s-8 23-6 34c4 18 28 48 28 48m19-44s-5 16-3 24c3 12 22 31 22 31" fill="none" stroke="#000" stroke-width="12" stroke-linecap="round" paint-order="markers fill stroke"/>
    <use xlink:href="#a" transform="translate(790)" width="100%" height="100%"/>
</svg>
