<svg xmlns="http://www.w3.org/2000/svg" height="512" width="512"><path d="M152 383h130v52H152z" fill="#fff"/><path d="M292 388s-3 43-16 59c-14 18-36 25-63 30-27-7-42-12-55-25-15-15-30-65-30-65l24-4s7 28 17 38c11 11 32 18 44 19 11 0 22-8 31-14 13-9 31-34 31-34z" fill="#806600" stroke="#000" stroke-width="10"/><path d="M188 402l43-3-20 11zm28 37l-5-29m-53-9l-22 10m27 1l-19 17m26-7l-17 24m25-18l-7 34m23-26l-4 34m15-31l1 36m18-38l8 36m6-43l11 37m1-46l19 33m-10-43l23 24m-14-34l21 11" fill="none" stroke="#000" stroke-width="10"/><path d="M191 353c-16 4-39 13-53 23H81c-3 5 2 4 5 5l66 12c43-9 80-12 123 2 23-2 49-7 72-10 2-5-3-4-6-4l-47-1c-18-17-37-23-58-26-13 3-27 3-41 0a200 201 0 01-4-1z" color="#000"/><path d="M56 140c7-31 39-46 67-56 32-11 65-20 97-32 42-14 88-27 131-11 34 13 60 39 86 63 17 17 33 44 20 68-12 22-32 38-54 48-19 7-40 9-59 12l-34 21 10 48c-30 15-61 32-95 33-38-2-73-16-108-30l-4-85c-12-18-24-35-41-48-8-8-18-18-16-31z" fill="#fff" stroke="#000" stroke-width="12" stroke-linecap="round" stroke-linejoin="round" paint-order="markers fill stroke"/><path d="M113 219s67 25 103 31c31 5 93 5 93 5" fill="none" stroke="#000" stroke-width="12" stroke-linecap="round" stroke-linejoin="round" paint-order="markers fill stroke"/><path d="M139 152s-8 23-6 34c4 18 28 48 28 48m19-44s-5 16-3 24c3 12 22 31 22 31" fill="none" stroke="#000" stroke-width="12" stroke-linecap="round" paint-order="markers fill stroke"/></svg>