<?xml version="1.0" encoding="UTF-8" standalone="no"?>
<svg
   xmlns:dc="http://purl.org/dc/elements/1.1/"
   xmlns:cc="http://creativecommons.org/ns#"
   xmlns:rdf="http://www.w3.org/1999/02/22-rdf-syntax-ns#"
   xmlns:svg="http://www.w3.org/2000/svg"
   xmlns="http://www.w3.org/2000/svg"
   xmlns:sodipodi="http://sodipodi.sourceforge.net/DTD/sodipodi-0.dtd"
   xmlns:inkscape="http://www.inkscape.org/namespaces/inkscape"
   height="48"
   width="48"
   version="1.1"
   id="svg18"
   sodipodi:docname="chefjefferson.svg"
   inkscape:version="0.92.2 5c3e80d, 2017-08-06">
  <metadata
     id="metadata24">
    <rdf:RDF>
      <cc:Work
         rdf:about="">
        <dc:format>image/svg+xml</dc:format>
        <dc:type
           rdf:resource="http://purl.org/dc/dcmitype/StillImage" />
      </cc:Work>
    </rdf:RDF>
  </metadata>
  <defs
     id="defs22" />
  <sodipodi:namedview
     pagecolor="#ffffff"
     bordercolor="#666666"
     borderopacity="1"
     objecttolerance="10"
     gridtolerance="10"
     guidetolerance="10"
     inkscape:pageopacity="0"
     inkscape:pageshadow="2"
     inkscape:window-width="1408"
     inkscape:window-height="830"
     id="namedview20"
     showgrid="true"
     inkscape:zoom="27.812867"
     inkscape:cx="18.31204"
     inkscape:cy="10.639"
     inkscape:window-x="0"
     inkscape:window-y="0"
     inkscape:window-maximized="0"
     inkscape:current-layer="layer3">
    <inkscape:grid
       type="xygrid"
       id="grid857" />
  </sodipodi:namedview>
  <g
     inkscape:groupmode="layer"
     id="layer3"
     inkscape:label="main"
     style="display:inline">
    <path
       style="display:inline;fill:#ffffff"
       d="m 13.258,37.214 h 13.055 v 5.205 H 13.258 Z"
       id="path2"
       inkscape:connector-curvature="0" />
    <g
       style="display:inline;stroke:#000000"
       id="g8">
      <path
         d="m 27.27,37.78 c 0,0 -0.262,4.249 -1.562,5.789 -1.487,1.761 -3.626,2.469 -6.315,2.977 -2.721,-0.642 -4.218,-1.141 -5.555,-2.482 -1.508,-1.512 -2.985,-6.48 -2.985,-6.48 l 2.405,-0.37 c 0,0 0.687,2.812 1.686,3.781 1.145,1.11 3.2,1.826 4.452,1.858 1.12,0.029 2.205,-0.714 3.122,-1.378 1.225,-0.886 3.015,-3.357 3.015,-3.357 z"
         id="path4"
         inkscape:connector-curvature="0"
         style="fill:#806600" />
      <path
         d="m 16.848,39.136 4.284,-0.34 -1.981,1.143 z m 2.826,3.696 -0.523,-2.893 m -5.325,-0.869 -2.195,0.926 m 2.697,0.121 -1.892,1.727 m 2.604,-0.784 -1.687,2.436 m 2.506,-1.791 -0.695,3.369 m 2.27,-2.621 -0.402,3.447 m 1.553,-3.135 0.108,3.6 m 1.799,-3.724 0.756,3.505 m 0.602,-4.211 1.098,3.618 m 0.075,-4.499 1.954,3.216 m -0.972,-4.257 2.308,2.406 m -1.475,-3.396 2.124,1.048"
         id="path6"
         inkscape:connector-curvature="0"
         style="fill:none" />
    </g>
    <path
       style="display:inline;fill:#ffffff;stroke:#000000;stroke-width:1.20000005;stroke-linecap:round;stroke-linejoin:round;paint-order:markers fill stroke"
       d="M 3.714,13.156 C 4.404,10.043 7.618,8.55 10.349,7.59 13.585,6.532 16.874,5.637 20.055,4.41 24.224,3.014 28.873,1.77 33.188,3.263 c 3.348,1.327 5.948,3.947 8.576,6.315 1.756,1.665 3.266,4.363 2.023,6.75 -1.177,2.138 -3.242,3.735 -5.438,4.729 -1.889,0.7 -3.929,0.893 -5.89,1.198 l -3.385,2.093 1.043,4.749 C 27.109,30.572 24.004,32.229 20.6,32.423 16.816,32.226 13.225,30.803 9.735,29.436 L 9.388,20.957 c -1.2,-1.73 -2.381,-3.504 -4.09,-4.782 -0.84,-0.771 -1.86,-1.762 -1.584,-3.019 z"
       id="path12"
       inkscape:connector-curvature="0" />
    <path
       style="display:inline;fill:none;stroke:#000000;stroke-width:1.20000005;stroke-linecap:round;stroke-linejoin:round;paint-order:markers fill stroke"
       d="m 9.388,20.957 c 0,0 6.722,2.501 10.266,3.08 3.094,0.504 9.293,0.54 9.293,0.54"
       id="path14"
       inkscape:connector-curvature="0" />
    <path
       style="display:inline;fill:none;stroke:#000000;stroke-width:1.20000005;stroke-linecap:round;paint-order:markers fill stroke"
       d="m 11.981,14.332 c 0,0 -0.777,2.263 -0.565,3.39 0.33,1.756 2.757,4.717 2.757,4.717 m 1.906,-4.365 c 0,0 -0.484,1.617 -0.28,2.399 0.316,1.205 2.214,3.123 2.214,3.123"
       id="path16"
       inkscape:connector-curvature="0" />
    <path
       d="m 17.17,34.264 c -1.646,0.373 -3.923,1.26 -5.281,2.32 -1.672,-0.018 -3.691,0.07 -5.76,-0.038 -0.212,0.452 0.205,0.44 0.539,0.49 2.183,0.41 4.398,0.785 6.56,1.215 4.35,-0.906 8.031,-1.251 12.392,0.173 2.27,-0.172 4.84,-0.663 7.182,-1.013 0.124,-0.479 -0.285,-0.4 -0.62,-0.398 l -4.733,-0.102 c -1.787,-1.63 -3.698,-2.285 -5.78,-2.56 -1.344,0.262 -2.72,0.274 -4.061,-0.012 A 19.98,19.98 0 0 1 17.17,34.264 Z"
       id="path10"
       style="display:inline;color:#000000;fill:#000000;fill-opacity:1"
       inkscape:connector-curvature="0" />
    <path
       style="display:inline;color:#000000;fill:#806600;fill-opacity:1"
       d="m 17.294075,35.304383 c 1.224094,0.263265 3.001942,0.320782 4.410821,0.07627 C 23,35.694915 25,36.308995 26,37 25.49776,37.1506 25.381764,37.243523 24.899556,37.349418 20.944123,35.934003 17.367553,36.410033 13.687777,37.321083 13.380018,37.282233 13.285285,37.121806 13,37 c 1,-0.669832 3,-1.534236 4.294075,-1.695617 z"
       id="path854"
       inkscape:connector-curvature="0"
       sodipodi:nodetypes="ccccccc" />
  </g>
</svg>
