<?xml version="1.0" encoding="UTF-8" standalone="no"?>
<!-- Created with Inkscape (http://www.inkscape.org/) -->

<svg
   xmlns:dc="http://purl.org/dc/elements/1.1/"
   xmlns:cc="http://creativecommons.org/ns#"
   xmlns:rdf="http://www.w3.org/1999/02/22-rdf-syntax-ns#"
   xmlns:svg="http://www.w3.org/2000/svg"
   xmlns="http://www.w3.org/2000/svg"
   xmlns:sodipodi="http://sodipodi.sourceforge.net/DTD/sodipodi-0.dtd"
   xmlns:inkscape="http://www.inkscape.org/namespaces/inkscape"
   width="512"
   height="512"
   viewBox="0 0 512 512"
   version="1.1"
   id="svg8"
   inkscape:version="0.92.2 5c3e80d, 2017-08-06"
   sodipodi:docname="apple.svg">
  <defs
     id="defs2" />
  <sodipodi:namedview
     id="base"
     pagecolor="#ffffff"
     bordercolor="#666666"
     borderopacity="1.0"
     inkscape:pageopacity="0.0"
     inkscape:pageshadow="2"
     inkscape:zoom="0.98994948"
     inkscape:cx="176.97533"
     inkscape:cy="297.17297"
     inkscape:document-units="px"
     inkscape:current-layer="layer1"
     showgrid="false"
     inkscape:window-width="1440"
     inkscape:window-height="855"
     inkscape:window-x="0"
     inkscape:window-y="1"
     inkscape:window-maximized="1"
     units="px" />
  <metadata
     id="metadata5">
    <rdf:RDF>
      <cc:Work
         rdf:about="">
        <dc:format>image/svg+xml</dc:format>
        <dc:type
           rdf:resource="http://purl.org/dc/dcmitype/StillImage" />
        <dc:title></dc:title>
      </cc:Work>
    </rdf:RDF>
  </metadata>
  <g
     inkscape:label="Layer 1"
     inkscape:groupmode="layer"
     id="layer1"
     transform="translate(0,-161.53336)"
     style="display:inline">
    <g
       id="g887"
       transform="matrix(4.1339062,0,0,4.2118473,-26.540579,-556.61598)">
      <path
         inkscape:connector-curvature="0"
         id="path916"
         d="m 66.945405,204.82085 c -1.32721,-6.66308 -3.991747,-13.28849 -8.838064,-18.18113 -2.952713,-2.88093 -6.563961,-5.38159 -10.718881,-6.03129 -2.369342,-0.40768 -5.016082,-0.89189 -6.562201,-2.93324 -1.248869,-1.36107 1.149805,-2.77022 2.418378,-2.60254 3.422268,0.0167 6.585899,1.6334 9.553839,3.17535 5.696711,3.13086 10.008042,8.48663 12.364751,14.50024 0.972128,1.89294 1.200718,4.06105 1.776907,6.09219 0.479949,1.96087 0.940491,3.927 1.463334,5.877 -0.484251,0.0541 -0.9692,0.12824 -1.458063,0.10342 z"
         style="fill:#754a23;stroke-width:0.09908028" />
      <path
         sodipodi:nodetypes="ccczccccc"
         inkscape:connector-curvature="0"
         id="path920"
         d="M 88.37755,8.9736125 C 83.120335,17.488884 71.033965,18.933406 66.890484,28.381552 c -1.707759,5.347152 1.512984,14.802518 1.512984,14.802518 0,0 5.807923,-0.905812 10.764979,-2.990338 4.957056,-2.084526 8.044217,-4.978048 11.240404,-8.273566 2.778541,-4.914725 1.959314,-10.954341 1.095116,-16.298557 C 90.931618,13.25866 90.328619,10.605881 88.37755,8.9736125 Z M 74.264199,130.23547 c -1.733582,0.14778 -3.574404,0.27521 0,0 z"
         style="display:inline;fill:#8ac43c;stroke-width:0.09908028"
         transform="translate(0,161.53336)" />
      <path
         sodipodi:nodetypes="ccccczccccccccc"
         inkscape:connector-curvature="0"
         id="path918"
         d="M 63.269617,130.48433 C 45.403941,129.93272 26.911716,122.72044 16.120979,107.94722 6.0360767,94.21619 3.7422916,75.25963 9.5775704,59.34647 13.845714,48.76032 23.024488,39.55453 34.688569,37.96284 c 10.001954,-1.82765 19.832415,0.700335 29.122417,4.288545 5.54849,2.57894 7.749995,-0.781754 16.588105,-2.488225 8.83811,-1.706471 26.148499,-0.50163 35.048699,8.85759 11.42655,11.96505 17.89055,29.79368 13.37727,46.11705 -4.9617,16.23273 -20.41114,26.79061 -35.888531,31.77426 -9.559891,3.09007 -19.643199,4.29668 -29.666912,3.97227 z M 21.808924,66.8838 c 2.002568,-4.47726 2.840515,-9.88982 7.336443,-12.935 3.271881,-1.90592 7.165577,-9.66421 0.443459,-8.37406 -6.615889,2.84285 -10.870837,10.30402 -10.93278,17.37046 0.05434,1.63031 1.083729,4.42856 3.152878,3.9386 z"
         style="display:inline;fill:#ec1a23;stroke-width:0.09908028"
         transform="translate(0,161.53336)" />
      <path
         inkscape:connector-curvature="0"
         id="path881"
         d="m 76.028681,250.30971 c -7.938656,-6.82854 -5.494565,-29.77718 5.228253,-49.09035 8.391505,-15.11418 28.345886,-30.65317 37.224336,-28.98756 5.36538,1.00655 6.87592,3.11778 6.32594,8.84154 -0.68227,7.10046 -6.09679,15.22412 -15.05354,22.58555 -9.903379,8.13944 -14.70625,15.59735 -21.755323,33.78173 -6.351311,16.38437 -7.032045,17.11626 -11.969666,12.86909 z"
         style="opacity:1;fill:#ffffff;fill-opacity:1;fill-rule:nonzero;stroke:none;stroke-width:1.01015258;stroke-linecap:butt;stroke-linejoin:round;stroke-miterlimit:4;stroke-dasharray:none;stroke-opacity:1;paint-order:stroke markers fill"
         transform="matrix(0.26458333,0,0,0.26458333,0,161.53336)" />
    </g>
  </g>
</svg>
