<svg xmlns="http://www.w3.org/2000/svg" width="512" height="512"><path d="M344 317l-12 11c-5 8-14 10-26 6l-5 25s-50 41-61-2c-14-55 24-86 67-107 2 0 17 22 27 32 11 11 16 19 16 24-1 5-3 9-6 11z" fill="#4f6e34"/><path d="M338 255s13 48 15 79c-20-15-27-45-37-65 0-12-21 2-8 11 12 23 32 73 32 73s-11-2-21-9c-3-3-31-27-38-31-8-5-20-11-7 9 6 11 28 38 42 57-26-10-91-9-91-9l-5 26c44 6 99 12 138 34 33 19 63 43 91 68 8 11 24 20 37 9 19-10 30-32 25-52-2-15-26-10-35-20-26-15-50-35-70-56-20-27-30-58-42-88-4-14-8-42-8-42z" fill="#90d651"/><path d="M254 0c-17 10-38 1-56 0-17 9-32 18-52 9-23-1-21 29-45 28-10 16-24 31-39 41-22 5-20 26-39 35-10 14 4 30-9 43 4 19 0 38 12 55-2 18 25 41-6 51-5 13-11 26-20 39 9 18 4 37 14 54 0 18 23 26 24 45 18 9 15 40 43 33 13 14 33 3 41 23 17 4 37 6 54-3 27-6 27-33 44-49 11-10-5-22 12-29 1-20 41-16 40-41 9-8 28-8 26-22 18-14-1-37 26-39 24 1 34-25 58-14 13-12 32-18 37-35 23-3 16-28 36-36 10-20 2-43 4-65 3-23-26-29-32-49-11-11-29-6-35-23-19-2-19-32-43-22-21-3-40-13-60-9-16-1-20-18-35-20z" fill="#4a732f"/></svg>
