<svg xmlns="http://www.w3.org/2000/svg" overflow="visible" width="512" height="512"><path d="M37 315c-11 47 24 89 62 113 55 34 122 55 187 46 61-6 128-30 158-87 9-10 15-50-5-28-45-1-402-44-402-44z" fill="#c6902c" /><path d="M37 270c-18 23-1 53 15 72 29 32 67 56 106 73 46 15 96 22 144 19 66-8 128-50 161-107 11-15 7-56-17-31-181-21-407-28-407-28z" fill="#804000" /><path d="M39 279c25 30 53 63 91 76 33 7 67-1 98-12 73-45-189-64-189-64zm269 74c62 17 78-6 125-38 18-18 21-18 31-27 15-11-3-37-8-31" fill="red" /><path d="M349 378c32 17 43 5 66-113 0 0-238-18-337-19-17 8-39 9-56 1-12 20-30 37-9 38 64 2 104 18 183 36 79 19 121 40 153 57z" fill="#f2c802" /><path d="M79 245c-2 31-1 69 24 90 18 15 49 19 62-5 12-18 27-38 26-61-38-3-75-14-111-26z" fill="#00c200" /><path d="M0 223c3 14 31 10 16 26 2 25 41 24 56 10-11-39-31-42-72-36zm192 51c-7 15-27 40-10 54 14 5 31-15 30 5 8 12 35-4 26 18 15 31 24-20 29-19 8 25 32 8 24-11l7 7c18 16 35-7 54-8 14 10 8-26 28-18 22-6 15 43 28 17 3 10 15 48 17 19-9-24 17-17 30-13-11-20 4-46 3-67 0 0-184 18-266 16z" fill="#80ff00" /><path d="M464 193c-10 18-14 41-31 55-22 7-7 22 9 18 24-1 45 32 66 16 13-34-10-78-44-89z" fill="#00c200" /><path d="M243 36c-53 1-99 10-141 38-41 28-77 73-71 123s33 79 100 93c68 13 209 19 270-6 62-25 65-50 64-93-2-42-18-81-59-110-41-30-110-46-163-45z" fill="#c6902c" /><path d="M157 366c41 14 85 23 129 16 12-4 25-3 37-6 4-7-8-7-13-7-36-1-72 9-109 2l-44-5z" /></svg>
