<?xml version="1.0" encoding="UTF-8" standalone="no"?>
<svg
   xmlns:dc="http://purl.org/dc/elements/1.1/"
   xmlns:cc="http://creativecommons.org/ns#"
   xmlns:rdf="http://www.w3.org/1999/02/22-rdf-syntax-ns#"
   xmlns:svg="http://www.w3.org/2000/svg"
   xmlns="http://www.w3.org/2000/svg"
   xmlns:sodipodi="http://sodipodi.sourceforge.net/DTD/sodipodi-0.dtd"
   xmlns:inkscape="http://www.inkscape.org/namespaces/inkscape"
   width="1024"
   height="1024"
   version="1.1"
   id="svg10"
   sodipodi:docname="food-sprites.svg"
   inkscape:version="0.92.2 5c3e80d, 2017-08-06">
  <metadata
     id="metadata16">
    <rdf:RDF>
      <cc:Work
         rdf:about="">
        <dc:format>image/svg+xml</dc:format>
        <dc:type
           rdf:resource="http://purl.org/dc/dcmitype/StillImage" />
        <dc:title />
      </cc:Work>
    </rdf:RDF>
  </metadata>
  <defs
     id="defs14" />
  <sodipodi:namedview
     pagecolor="#ffffff"
     bordercolor="#666666"
     borderopacity="1"
     objecttolerance="10"
     gridtolerance="10"
     guidetolerance="10"
     inkscape:pageopacity="0"
     inkscape:pageshadow="2"
     inkscape:window-width="1440"
     inkscape:window-height="855"
     id="namedview12"
     showgrid="false"
     inkscape:zoom="0.4609375"
     inkscape:cx="388.33898"
     inkscape:cy="776.67797"
     inkscape:window-x="0"
     inkscape:window-y="1"
     inkscape:window-maximized="1"
     inkscape:current-layer="svg10" />
  <path
     d="m 250,657 c -5,-29 -16,-56 -36,-77 a 84,84 0 0 0 -45,-25 c -9,-2 -20,-4 -27,-13 -5,-6 5,-11 10,-11 14,0 27,7 40,14 23,13 41,35 51,61 4,8 5,17 7,25 l 6,25 z"
     id="path2"
     inkscape:connector-curvature="0"
     style="fill:#754a23" />
  <path
     d="m 339,512 c -22,36 -72,42 -89,82 -7,22 6,62 6,62 0,0 24,-4 45,-13 20,-8 33,-20 46,-34 12,-21 8,-46 5,-69 -3,-10 -5,-21 -13,-28 z m -59,511 c -7,0 -14,1 0,0 z"
     id="path4"
     inkscape:connector-curvature="0"
     style="fill:#8ac43c" />
  <path
     d="M 235,1024 C 161,1021 85,991 40,929 -2,871 -11,791 13,724 c 18,-44 56,-83 104,-90 41,-8 82,3 120,18 23,11 32,-3 69,-10 36,-8 108,-2 145,37 47,50 74,125 55,194 -21,69 -84,113 -148,134 -40,13 -82,18 -123,17 z M 64,756 c 8,-19 11,-42 30,-55 13,-8 30,-40 2,-35 a 82,82 0 0 0 -45,73 c 0,7 4,19 13,17 z"
     id="path6"
     inkscape:connector-curvature="0"
     style="fill:#ec1a23" />
  <path
     d="m 57,753 c -9,-7 -6,-33 5,-55 10,-16 31,-34 41,-32 6,1 8,4 7,10 -1,8 -7,17 -16,25 -11,9 -17,18 -24,38 -7,18 -8,19 -13,14 z"
     id="path8"
     inkscape:connector-curvature="0"
     style="fill:#ffffff;paint-order:stroke markers fill" />
  <g
     id="g927"
     transform="matrix(0.99960107,0,0,0.99998843,512,512)">
    <path
       id="path910"
       d="m 344,317 -12,11 c -5,8 -14,10 -26,6 l -5,25 c 0,0 -50,41 -61,-2 -14,-55 24,-86 67,-107 2,0 17,22 27,32 11,11 16,19 16,24 -1,5 -3,9 -6,11 z"
       inkscape:connector-curvature="0"
       style="fill:#4f6e34" />
    <path
       id="path912"
       d="m 338,255 c 0,0 13,48 15,79 -20,-15 -27,-45 -37,-65 0,-12 -21,2 -8,11 12,23 32,73 32,73 0,0 -11,-2 -21,-9 -3,-3 -31,-27 -38,-31 -8,-5 -20,-11 -7,9 6,11 28,38 42,57 -26,-10 -91,-9 -91,-9 l -5,26 c 44,6 99,12 138,34 33,19 63,43 91,68 8,11 24,20 37,9 19,-10 30,-32 25,-52 -2,-15 -26,-10 -35,-20 -26,-15 -50,-35 -70,-56 -20,-27 -30,-58 -42,-88 -4,-14 -8,-42 -8,-42 z"
       inkscape:connector-curvature="0"
       style="fill:#90d651" />
    <path
       id="path914"
       d="M 254,0 C 237,10 216,1 198,0 181,9 166,18 146,9 123,8 125,38 101,37 91,53 77,68 62,78 c -22,5 -20,26 -39,35 -10,14 4,30 -9,43 4,19 0,38 12,55 -2,18 25,41 -6,51 -5,13 -11,26 -20,39 9,18 4,37 14,54 0,18 23,26 24,45 18,9 15,40 43,33 13,14 33,3 41,23 17,4 37,6 54,-3 27,-6 27,-33 44,-49 11,-10 -5,-22 12,-29 1,-20 41,-16 40,-41 9,-8 28,-8 26,-22 18,-14 -1,-37 26,-39 24,1 34,-25 58,-14 13,-12 32,-18 37,-35 23,-3 16,-28 36,-36 10,-20 2,-43 4,-65 C 462,100 433,94 427,74 416,63 398,68 392,51 373,49 373,19 349,29 328,26 309,16 289,20 273,19 269,2 254,0 Z"
       inkscape:connector-curvature="0"
       style="fill:#4a732f" />
  </g>
  <g
     style="overflow:visible"
     id="g1025"
     transform="translate(0.15806786,-2.0863782)">
    <path
       id="path990"
       d="m 37,315 c -11,47 24,89 62,113 55,34 122,55 187,46 61,-6 128,-30 158,-87 9,-10 15,-50 -5,-28 C 394,358 37,315 37,315 Z"
       inkscape:connector-curvature="0"
       style="fill:#c6902c" />
    <path
       id="path992"
       d="m 37,270 c -18,23 -1,53 15,72 29,32 67,56 106,73 46,15 96,22 144,19 66,-8 128,-50 161,-107 11,-15 7,-56 -17,-31 C 265,275 39,268 39,268 Z"
       inkscape:connector-curvature="0"
       style="fill:#804000" />
    <path
       id="path994"
       d="m 39,279 c 25,30 53,63 91,76 33,7 67,-1 98,-12 C 301,298 39,279 39,279 Z m 269,74 c 62,17 78,-6 125,-38 18,-18 21,-18 31,-27 15,-11 -3,-37 -8,-31"
       inkscape:connector-curvature="0"
       style="fill:#ff0000" />
    <path
       id="path996"
       d="m 349,378 c 32,17 43,5 66,-113 0,0 -238,-18 -337,-19 -17,8 -39,9 -56,1 -12,20 -30,37 -9,38 64,2 104,18 183,36 79,19 121,40 153,57 z"
       inkscape:connector-curvature="0"
       style="fill:#f2c802" />
    <path
       id="path998"
       d="m 79,245 c -2,31 -1,69 24,90 18,15 49,19 62,-5 12,-18 27,-38 26,-61 -38,-3 -75,-14 -111,-26 z"
       inkscape:connector-curvature="0"
       style="fill:#00c200" />
    <path
       id="path1000"
       d="m 0,223 c 3,14 31,10 16,26 2,25 41,24 56,10 C 61,220 41,217 0,223 Z m 192,51 c -7,15 -27,40 -10,54 14,5 31,-15 30,5 8,12 35,-4 26,18 15,31 24,-20 29,-19 8,25 32,8 24,-11 l 7,7 c 18,16 35,-7 54,-8 14,10 8,-26 28,-18 22,-6 15,43 28,17 3,10 15,48 17,19 -9,-24 17,-17 30,-13 -11,-20 4,-46 3,-67 0,0 -184,18 -266,16 z"
       inkscape:connector-curvature="0"
       style="fill:#80ff00" />
    <path
       id="path1002"
       d="m 464,193 c -10,18 -14,41 -31,55 -22,7 -7,22 9,18 24,-1 45,32 66,16 13,-34 -10,-78 -44,-89 z"
       inkscape:connector-curvature="0"
       style="fill:#00c200" />
    <path
       id="path1004"
       d="m 243,36 c -53,1 -99,10 -141,38 -41,28 -77,73 -71,123 6,50 33,79 100,93 68,13 209,19 270,-6 62,-25 65,-50 64,-93 C 463,149 447,110 406,81 365,51 296,35 243,36 Z"
       inkscape:connector-curvature="0"
       style="fill:#c6902c" />
    <path
       id="path1006"
       d="m 157,366 c 41,14 85,23 129,16 12,-4 25,-3 37,-6 4,-7 -8,-7 -13,-7 -36,-1 -72,9 -109,2 z"
       inkscape:connector-curvature="0" />
  </g>
  <g
     id="g905"
     transform="translate(512.09761,-70.262279)">
    <path
       id="path882"
       d="m 507,269 2,27 L 261,489 1,312 c 0,0 1,-23 5,-31 3,-6 13,-16 30,-27 63,-35 121,-73 185,-105 20,-7 46,-11 64,0 56,26 115,51 169,79 30,16 47,30 53,41 z"
       inkscape:connector-curvature="0"
       style="fill:#f0b543" />
    <path
       id="path884"
       d="m 509,302 c 0,20 -13,38 -29,49 A 1976,1976 0 0 1 304,486 c -9,6 -22,8 -31,6 l -3,-45 c 20,2 37,-9 54,-19 45,-28 85,-63 126,-97 15,-13 32,-25 47,-39 5,-3 9,-16 11,-15 3,8 1,16 1,25 z"
       inkscape:connector-curvature="0"
       style="fill:#dea435" />
    <path
       id="path886"
       d="M 101,402 C 73,384 44,368 18,348 A 52,52 0 0 1 6,287 c 1,16 18,23 30,31 l 211,121 c 6,6 24,2 24,13 l 2,41 c -21,0 -39,-11 -57,-20 z"
       inkscape:connector-curvature="0"
       style="fill:#f5c658" />
    <path
       id="path888"
       d="m 108,271 c 0,20 -28,32 -45,32 -22,1 -49,-26 -20,-40 11,-8 28,-19 40,-8 l 25,15 z m 25,-58 c 15,0 54,17 31,32 -14,13 -36,27 -53,10 -11,-4 -33,-16 -12,-24 12,-6 21,-15 34,-18 z m 102,-15 c -11,12 -27,20 -41,28 -17,1 -35,-10 -45,-23 18,-12 38,-34 61,-23 9,5 20,9 25,18 z m -8,-21 c -21,-5 -3,-22 10,-21 14,-5 51,-8 50,11 -14,9 -28,31 -46,18 z M 86,325 c -9,-18 23,-29 36,-38 19,-2 46,10 52,30 a 76,76 0 0 1 -51,31 C 109,344 98,333 86,325 Z m 58,-50 c 1,-17 27,-25 41,-33 18,4 40,9 49,27 -1,18 -28,31 -45,35 -16,-8 -33,-16 -45,-29 z m 140,-54 c 22,10 -6,29 -17,34 -20,14 -38,-6 -55,-14 -19,-17 20,-29 33,-32 14,-3 28,5 39,12 z m 25,-47 c 12,8 46,11 37,30 a 40,40 0 0 1 -54,9 c -16,-4 -36,-22 -11,-31 8,-5 18,-13 28,-8 z m -87,162 c 13,6 39,19 17,32 -16,10 -32,31 -52,18 -11,-11 -47,-18 -33,-39 17,-10 38,-32 59,-16 z m 86,-29 c -9,18 -30,28 -49,33 -17,-4 -42,-14 -48,-32 9,-16 29,-29 48,-30 17,5 34,15 47,27 z m 30,-20 c -19,13 -41,-2 -59,-9 -20,-15 9,-30 22,-36 21,-9 45,4 61,17 7,14 -16,21 -24,28 z m -6,-57 c 7,-22 38,-33 57,-20 16,5 35,19 15,33 -16,18 -39,9 -56,-3 z m 143,56 c -14,12 -31,-4 -44,-10 -14,-4 -33,-20 -13,-31 19,-20 44,-3 60,11 10,9 7,22 -3,30 z m -34,16 c -8,21 -20,27 -33,34 -22,9 -45,-14 -61,-27 l 40,-35 z m -92,81 c -23,10 -41,-14 -62,-21 -18,-19 15,-32 28,-40 18,-6 33,7 48,13 27,10 15,35 -6,43 z m -46,1 c 25,21 -4,40 -23,39 -18,3 -55,-16 -47,-31 11,-13 42,-26 70,-8 z"
       inkscape:connector-curvature="0"
       style="fill:#d49e33" />
    <path
       id="path890"
       d="m 28,282 c 10,-26 44,-40 69,-26 18,2 16,34 -2,18 a 35,35 0 0 0 -50,-5 c -6,3 -12,8 -17,13 z m 136,-57 c 17,1 2,28 -3,8 -18,-20 -48,-7 -63,10 -20,-1 8,-16 14,-20 17,-14 36,-10 52,2 z m 71,-27 c -19,9 -35,-22 -55,-9 -8,3 -27,24 -29,13 14,-11 30,-23 47,-25 13,2 30,9 37,21 z m 54,-33 c -19,4 -39,-12 -56,1 -10,10 -26,0 -8,-5 18,-8 41,-13 59,-2 3,0 9,3 5,6 z M 121,299 c -15,0 -28,25 -36,23 1,-20 28,-33 45,-35 15,6 38,9 43,26 -2,18 -19,-11 -29,-10 -7,-4 -15,-6 -23,-4 z m 31,-37 c 15,-12 34,-26 54,-14 13,1 41,25 22,33 -6,-20 -27,-30 -47,-27 -16,-1 -24,26 -37,20 -2,-5 3,-10 8,-12 z m 132,-41 c 16,2 4,25 -4,8 a 53,53 0 0 0 -67,4 c -21,3 7,-17 15,-19 19,-11 40,-5 56,7 z m 47,-38 c 13,-3 23,26 5,12 -19,-13 -48,-17 -64,2 -1,-20 31,-30 46,-19 z m -82,173 c -17,12 -29,-22 -49,-15 -20,-4 -33,20 -49,20 -1,-20 26,-30 42,-35 19,-1 33,14 48,21 z m 26,-72 c 13,6 44,21 24,36 -14,-15 -35,-36 -57,-25 -8,5 -26,26 -30,13 11,-18 33,-34 54,-28 z m 84,-12 c -15,-20 -49,-31 -69,-12 -5,8 -26,16 -15,0 14,-15 37,-27 57,-17 10,5 44,13 27,29 z m 42,-56 c 17,-3 13,34 1,11 -16,-17 -48,-16 -61,4 -19,0 3,-23 13,-23 17,-8 33,0 47,8 z m -98,168 c 13,8 14,28 0,12 -16,-15 -46,-21 -58,1 -13,14 -18,-1 -6,-11 23,-23 45,-14 64,-2 z m 48,-41 c -19,-15 -49,-10 -59,12 -21,6 -6,-19 5,-22 15,-15 37,-16 54,-4 10,8 40,16 25,31 z m 90,-41 c -5,21 -22,0 -32,-6 -23,-17 -38,-3 -52,11 -17,9 -15,-8 1,-19 28,-27 42,-18 83,14 z m 40,-23 c -8,-18 -29,-37 -49,-30 -6,7 -27,24 -21,3 13,-23 43,-18 60,-2 9,6 19,18 10,29 z"
       inkscape:connector-curvature="0"
       style="fill:#b58325" />
  </g>
</svg>
