<?xml version="1.0" encoding="UTF-8" standalone="no"?>
<svg
   xmlns:dc="http://purl.org/dc/elements/1.1/"
   xmlns:cc="http://creativecommons.org/ns#"
   xmlns:rdf="http://www.w3.org/1999/02/22-rdf-syntax-ns#"
   xmlns:svg="http://www.w3.org/2000/svg"
   xmlns="http://www.w3.org/2000/svg"
   xmlns:sodipodi="http://sodipodi.sourceforge.net/DTD/sodipodi-0.dtd"
   xmlns:inkscape="http://www.inkscape.org/namespaces/inkscape"
   width="1024"
   height="512"
   version="1.1"
   id="svg4"
   sodipodi:docname="selector-sprite.svg"
   inkscape:version="0.92.2 5c3e80d, 2017-08-06">
  <metadata
     id="metadata10">
    <rdf:RDF>
      <cc:Work
         rdf:about="">
        <dc:format>image/svg+xml</dc:format>
        <dc:type
           rdf:resource="http://purl.org/dc/dcmitype/StillImage" />
        <dc:title></dc:title>
      </cc:Work>
    </rdf:RDF>
  </metadata>
  <defs
     id="defs8" />
  <sodipodi:namedview
     pagecolor="#ffffff"
     bordercolor="#666666"
     borderopacity="1"
     objecttolerance="10"
     gridtolerance="10"
     guidetolerance="10"
     inkscape:pageopacity="0"
     inkscape:pageshadow="2"
     inkscape:window-width="1440"
     inkscape:window-height="855"
     id="namedview6"
     showgrid="false"
     inkscape:zoom="0.4609375"
     inkscape:cx="256"
     inkscape:cy="256"
     inkscape:window-x="0"
     inkscape:window-y="1"
     inkscape:window-maximized="1"
     inkscape:current-layer="svg4" />
  <path
     d="m 145,501 c 0,0 -7,-55 -16,-63 C 120,430 11,218 11,218 8,197 55,173 71,205 l 40,65 2,44 V 35 C 123,3 168,3 175,50 V 239 139 c 17,-23 56,-29 59,18 l -1,82 3,-91 c 10,-17 34,-24 51,-13 12,11 6,28 8,42 v 64 -73 c 35,-31 52,-15 56,20 1,56 6,124 3,167 -2,43 -12,62 -25,90 -8,17 -4,40 -7,56 z"
     id="path2"
     inkscape:connector-curvature="0"
     style="fill:#ffffff;stroke:#000000;stroke-width:20;stroke-linecap:round;stroke-linejoin:round" />
  <path
     id="path862"
     d="m 657.00008,501 c 0,0 -6.99999,-55 -15.99999,-63 -8.99999,-8 -117.99993,-220 -117.99993,-220 -2.99999,-21 43.99998,-45 59.99997,-13 l 39.99997,65 2,44 V 56.999997 c 10,-32 54.99997,-32 61.99996,15 V 239 139 c 16.99999,-23 55.99997,-29 58.99997,18 l -1,82 3,-91 c 9.99999,-17 33.99998,-24 50.99996,-13 12,11 6,28 8,42 v 64 -73 c 34.99998,-31 51.99997,-15 55.99996,20 1,56 6,124 3,167 -2,43 -11.99999,62 -24.99998,90 -8,17 -4,40 -7,56 z"
     inkscape:connector-curvature="0"
     style="fill:#ffffff;stroke:#000000;stroke-width:20;stroke-linecap:round;stroke-linejoin:round" />
</svg>
