<?xml version="1.0" encoding="UTF-8" standalone="no"?>
<svg
   xmlns:dc="http://purl.org/dc/elements/1.1/"
   xmlns:cc="http://creativecommons.org/ns#"
   xmlns:rdf="http://www.w3.org/1999/02/22-rdf-syntax-ns#"
   xmlns:svg="http://www.w3.org/2000/svg"
   xmlns="http://www.w3.org/2000/svg"
   xmlns:xlink="http://www.w3.org/1999/xlink"
   xmlns:sodipodi="http://sodipodi.sourceforge.net/DTD/sodipodi-0.dtd"
   xmlns:inkscape="http://www.inkscape.org/namespaces/inkscape"
   height="512"
   width="1024"
   version="1.1"
   id="svg16"
   sodipodi:docname="chef-sprite.svg"
   inkscape:version="0.92.2 5c3e80d, 2017-08-06">
  <metadata
     id="metadata22">
    <rdf:RDF>
      <cc:Work
         rdf:about="">
        <dc:format>image/svg+xml</dc:format>
        <dc:type
           rdf:resource="http://purl.org/dc/dcmitype/StillImage" />
        <dc:title></dc:title>
      </cc:Work>
    </rdf:RDF>
  </metadata>
  <defs
     id="defs20" />
  <sodipodi:namedview
     pagecolor="#ffffff"
     bordercolor="#666666"
     borderopacity="1"
     objecttolerance="10"
     gridtolerance="10"
     guidetolerance="10"
     inkscape:pageopacity="0"
     inkscape:pageshadow="2"
     inkscape:window-width="1440"
     inkscape:window-height="855"
     id="namedview18"
     showgrid="false"
     inkscape:zoom="0.921875"
     inkscape:cx="527.70202"
     inkscape:cy="333.93628"
     inkscape:window-x="0"
     inkscape:window-y="1"
     inkscape:window-maximized="1"
     inkscape:current-layer="svg16" />
  <g
     id="g885">
    <path
       style="fill:#ffffff"
       inkscape:connector-curvature="0"
       id="path2"
       d="m 152,383 h 130 v 52 H 152 Z" />
    <path
       style="fill:#806600;stroke:#000000;stroke-width:10"
       inkscape:connector-curvature="0"
       id="path4"
       d="m 292,388 c 0,0 -3,43 -16,59 -14,18 -36,25 -63,30 -27,-7 -42,-12 -55,-25 -15,-15 -30,-65 -30,-65 l 24,-4 c 0,0 7,28 17,38 11,11 32,18 44,19 11,0 22,-8 31,-14 13,-9 31,-34 31,-34 z" />
    <path
       d="m 268,401 21,11 m -30,-1 23,24 m -32,-14 19,33 m -31,-24 11,37 m -25,-30 8,36 m -27,-34 1,36 m -12,-39 -4,34 m -12,-42 -7,34 m -1,-40 -17,24 m 10,-34 -19,17 m 14,-28 -22,10"
       style="fill:none;stroke:#000000;stroke-width:10"
       id="path6" />
  </g>
  <path
     id="path877"
     style="fill:none;stroke:#000000;stroke-width:10"
     d="m 216,439 -5,-29 m -23,-8 43,-3 -20,11 z" />
  <path
     d="m 189.46455,354.61444 c -15.682,5.10636 -37.99817,15.68884 -51.26649,26.64107 l -56.861161,3.97612 c -2.64391,5.19709 2.274154,3.85074 5.336603,4.63904 l 66.676298,7.36684 c 42.26745,-11.9776 78.96806,-17.5513 122.8399,-6.58492 22.80446,-3.59953 48.39234,-10.40102 71.12705,-14.99811 1.64634,-5.12733 -3.27172,-3.78098 -6.26441,-3.57171 l -46.95527,2.28098 c -19.14202,-15.70296 -38.51427,-20.36298 -59.67238,-21.89078 -12.75907,3.89952 -26.72496,4.87612 -40.90014,2.86002 a 201,200 86 0 1 -4.06,-0.71855 z"
     id="path8"
     inkscape:connector-curvature="0"
     style="color:#000000" />
  <path
     d="m 57.651955,132.95154 c 8.07762,-30.73682 40.581619,-44.610903 68.913555,-53.627625 32.3644,-9.876515 65.6584,-17.719349 98.0577,-28.595255 42.463,-12.525693 88.88868,-23.912397 131.30409,-6.421465 33.52559,14.178663 58.60237,41.070212 83.74894,65.962975 16.39635,17.58294 31.44432,45.12488 17.61465,68.65657 -12.76048,21.5678 -33.30668,36.86007 -55.64228,46.08619 -19.23272,6.33264 -40.28973,7.59853 -59.38285,9.93362 l -34.71218,19.80062 8.31873,48.31976 C 285.3671,317.0108 253.79269,332.91856 219.7785,332.73137 181.87145,329.40641 147.38136,314.19345 112.89128,298.9805 l -1.03111,-85.08782 C 100.49567,195.48485 89.096274,178.07641 72.560324,164.49104 64.844393,156.21672 55.19948,145.87382 57.651955,132.95154 Z"
     id="path10"
     inkscape:connector-curvature="0"
     style="fill:#ffffff;stroke:#000000;stroke-width:12;stroke-linecap:round;stroke-linejoin:round;paint-order:markers fill stroke" />
  <g
     id="g913">
    <path
       style="fill:none;stroke:#000000;stroke-width:12;stroke-linecap:round;stroke-linejoin:round;paint-order:markers fill stroke"
       inkscape:connector-curvature="0"
       id="path12"
       d="m 111.86017,213.89268 c 0,0 66.0867,27.32304 101.85537,34.57577 30.80662,6.07883 92.76885,8.2426 92.76885,8.2426" />
    <path
       style="fill:none;stroke:#000000;stroke-width:12;stroke-linecap:round;paint-order:markers fill stroke"
       inkscape:connector-curvature="0"
       id="path14"
       d="m 140.1826,147.84088 c 0,0 -8.79782,22.7068 -7.18293,33.76989 3.36937,18.12864 26.30777,48.94795 26.30777,48.94795 m 20.524,-43.31011 c 0,0 -5.55534,15.81576 -3.83576,23.88069 2.57938,12.09738 20.90472,31.7489 20.90472,31.7489" />
  </g>
  <use
     x="0"
     y="0"
     xlink:href="#g885"
     id="use888"
     transform="translate(512,6)"
     width="100%"
     height="100%" />
  <use
     x="0"
     y="0"
     xlink:href="#path8"
     id="use890"
     transform="rotate(4,470.55409,7706.8674)"
     width="100%"
     height="100%" />
  <path
     d="m 728,443 -4.61648,-20.7275 M 700,402 l 43,-3 0.58053,10 -20.19701,11 L 702,412 Z"
     style="fill:none;stroke:#000000;stroke-width:10"
     id="path892"
     inkscape:connector-curvature="0"
     sodipodi:nodetypes="cccccccc" />
  <use
     x="0"
     y="0"
     xlink:href="#path10"
     id="use915"
     transform="rotate(-2,515.97661,-14482.21)"
     width="100%"
     height="100%" />
  <use
     x="0"
     y="0"
     xlink:href="#g913"
     id="use917"
     transform="translate(512)"
     width="100%"
     height="100%" />
</svg>
