<?xml version="1.0" encoding="UTF-8" standalone="no"?>
<!-- Created with Inkscape (http://www.inkscape.org/) -->

<svg
   xmlns:dc="http://purl.org/dc/elements/1.1/"
   xmlns:cc="http://creativecommons.org/ns#"
   xmlns:rdf="http://www.w3.org/1999/02/22-rdf-syntax-ns#"
   xmlns:svg="http://www.w3.org/2000/svg"
   xmlns="http://www.w3.org/2000/svg"
   xmlns:sodipodi="http://sodipodi.sourceforge.net/DTD/sodipodi-0.dtd"
   xmlns:inkscape="http://www.inkscape.org/namespaces/inkscape"
   version="1.1"
   id="svg815"
   width="300"
   height="100"
   viewBox="0 0 300 100"
   sodipodi:docname="ChefJeffersonHat.svg"
   inkscape:version="0.92.2 5c3e80d, 2017-08-06"
   inkscape:export-filename="/Users/dscheffy/sandbox/jfm/feedme-banner5.png"
   inkscape:export-xdpi="96"
   inkscape:export-ydpi="96">
  <metadata
     id="metadata821">
    <rdf:RDF>
      <cc:Work
         rdf:about="">
        <dc:format>image/svg+xml</dc:format>
        <dc:type
           rdf:resource="http://purl.org/dc/dcmitype/StillImage" />
        <dc:title />
      </cc:Work>
    </rdf:RDF>
  </metadata>
  <defs
     id="defs819" />
  <sodipodi:namedview
     pagecolor="#ffffff"
     bordercolor="#666666"
     borderopacity="1"
     objecttolerance="10"
     gridtolerance="10"
     guidetolerance="10"
     inkscape:pageopacity="0"
     inkscape:pageshadow="2"
     inkscape:window-width="1440"
     inkscape:window-height="855"
     id="namedview817"
     showgrid="false"
     inkscape:snap-global="false"
     inkscape:zoom="1.3354517"
     inkscape:cx="252.83208"
     inkscape:cy="58.133905"
     inkscape:window-x="0"
     inkscape:window-y="1"
     inkscape:window-maximized="1"
     inkscape:current-layer="svg815"
     inkscape:pagecheckerboard="false" />
  <rect
     style="opacity:1;fill:#e5e5e5;fill-opacity:1;fill-rule:nonzero;stroke:none;stroke-width:0.98315531;stroke-opacity:1"
     id="rect1590"
     width="300"
     height="100"
     x="0"
     y="-2.220446e-15" />
  <text
     xml:space="preserve"
     style="font-style:normal;font-variant:normal;font-weight:normal;font-stretch:normal;font-size:55.01478195px;line-height:1.25;font-family:'Titan One';-inkscape-font-specification:'Titan One';letter-spacing:0px;word-spacing:0px;fill:#4d004d;fill-opacity:1;stroke:none;stroke-width:1.37536955;"
     x="74.167336"
     y="62.924885"
     id="text849"><tspan
       sodipodi:role="line"
       id="tspan847"
       x="74.167336"
       y="62.924885"
       style="stroke-width:1.37536955;fill:#4d004d;fill-opacity:1;"><tspan
         style="font-size:58.6824379px;fill:#4d004d;stroke-width:1.37536955;fill-opacity:1;"
         id="tspan857">F</tspan><tspan
         style="font-size:51.34712982px;fill:#4d004d;stroke-width:1.37536955;fill-opacity:1;"
         id="tspan851">EED</tspan><tspan
         style="font-size:58.6824379px;fill:#4d004d;stroke-width:1.37536955;fill-opacity:1;"
         id="tspan859">M</tspan><tspan
         style="font-size:51.34712982px;fill:#4d004d;stroke-width:1.37536955;fill-opacity:1;"
         id="tspan853">E</tspan></tspan></text>
  <text
     xml:space="preserve"
     style="font-style:normal;font-weight:normal;font-size:61.65864563px;line-height:1.25;font-family:sans-serif;letter-spacing:0px;word-spacing:0px;fill:#66be00;fill-opacity:1;stroke:none;stroke-width:1.54146612;"
     x="150.73425"
     y="79.537491"
     id="text863"><tspan
       sodipodi:role="line"
       id="tspan861"
       x="150.73425"
       y="79.537491"
       style="font-style:normal;font-variant:normal;font-weight:normal;font-stretch:normal;font-size:32.88461304px;font-family:'Lily Script One';-inkscape-font-specification:'Lily Script One';fill:#66be00;stroke-width:1.54146612;fill-opacity:1;">Jefferson</tspan></text>
  <g
     id="g1641"
     transform="translate(1.5198417,1.711054)">
    <path
       style="fill:#ffffff;fill-opacity:1;stroke:#000000;stroke-width:2.53500009;stroke-linecap:round;stroke-linejoin:round;stroke-miterlimit:4;stroke-dasharray:none;stroke-opacity:1;paint-order:markers fill stroke"
       d="M 4.3635478,28.201067 C 6.432081,18.490084 20.781812,16.659531 30.073391,13.159741 38.470514,9.996849 47.635745,6.6691649 56.502448,8.046528 c 4.949413,0.768849 9.427735,3.890506 13.191678,7.195134 4.829237,4.239921 11.442673,9.162621 11.344275,15.588255 -0.07524,4.913811 -4.917684,8.968086 -9.036125,11.649435 -3.767496,2.452861 -13.090048,3.247392 -13.090048,3.247392 l -6.572129,4.162355 1.971639,9.200979 c 0,0 -11.152413,6.153507 -17.297782,6.43257 C 29.678429,65.855755 15.755242,59.74729 15.755242,59.74729 L 15.098025,43.316964 c 0,0 -2.359334,-3.404355 -3.554931,-5.095344 C 9.1708919,34.866505 3.5074891,32.219936 4.3635478,28.201067 Z"
       id="path825-0"
       inkscape:connector-curvature="0"
       sodipodi:nodetypes="aaaaaacccaccaa" />
    <path
       style="fill:none;stroke:#000000;stroke-width:2.23313212;stroke-linecap:round;stroke-linejoin:round;stroke-miterlimit:4;stroke-dasharray:none;stroke-opacity:1"
       d="m 15.098025,43.536035 c 0,0 12.791928,5.171048 19.535775,6.36666 5.887166,1.043738 17.925369,0.643615 17.925369,0.643615"
       id="path827-2"
       inkscape:connector-curvature="0"
       sodipodi:nodetypes="cac" />
    <path
       style="fill:none;stroke:#000000;stroke-width:2.13263106;stroke-linecap:round;stroke-linejoin:miter;stroke-miterlimit:4;stroke-dasharray:none;stroke-opacity:1"
       d="m 21.451089,31.706204 c 0,0 -1.31963,4.219502 -0.960659,6.319872 0.559631,3.274467 4.684862,8.796026 4.684862,8.796026"
       id="path829-4"
       inkscape:connector-curvature="0"
       sodipodi:nodetypes="cac" />
    <path
       style="fill:none;stroke:#000000;stroke-width:2.13263106;stroke-linecap:round;stroke-linejoin:miter;stroke-miterlimit:4;stroke-dasharray:none;stroke-opacity:1"
       d="m 28.242289,38.497404 c 0,0 -0.821756,3.013919 -0.474416,4.47223 0.535427,2.247997 3.760483,5.824107 3.760483,5.824107"
       id="path831-8"
       inkscape:connector-curvature="0"
       sodipodi:nodetypes="cac" />
    <path
       style="fill:none;stroke:#000000;stroke-width:1.72198832;stroke-linecap:butt;stroke-linejoin:miter;stroke-miterlimit:4;stroke-dasharray:none;stroke-opacity:1"
       d="m 22.418606,74.818347 c 0,0 1.299244,5.450029 3.188993,7.327371 2.166108,2.15188 6.054638,3.53697 8.422822,3.599936 2.117767,0.0563 4.170324,-1.383874 5.906219,-2.670297 2.316785,-1.71691 5.703489,-6.504441 5.703489,-6.504441"
       id="path837-3"
       inkscape:connector-curvature="0"
       sodipodi:nodetypes="casac" />
    <path
       style="fill:none;stroke:#000000;stroke-width:1.72198832;stroke-linecap:butt;stroke-linejoin:miter;stroke-miterlimit:4;stroke-dasharray:none;stroke-opacity:1"
       d="m 17.868991,75.537444 c 0,0 2.794476,9.624598 5.646927,12.554729 2.529165,2.598032 5.360583,3.565901 10.509161,4.808664 5.086986,-0.984149 9.13377,-2.355699 11.945929,-5.768133 2.459424,-2.984409 2.955188,-11.219 2.955188,-11.219"
       id="path839-9"
       inkscape:connector-curvature="0"
       sodipodi:nodetypes="cscac" />
    <path
       style="fill:none;stroke:#000000;stroke-width:1.72198832;stroke-linecap:butt;stroke-linejoin:miter;stroke-miterlimit:4;stroke-dasharray:none;stroke-opacity:1"
       d="m 29.209806,78.542555 8.105627,-0.657211 -4.162349,2.40978 z"
       id="path841-0"
       inkscape:connector-curvature="0" />
    <path
       style="fill:none;stroke:#000000;stroke-width:1.72198832;stroke-linecap:butt;stroke-linejoin:miter;stroke-miterlimit:4;stroke-dasharray:none;stroke-opacity:1"
       d="M 34.467512,85.114684 33.372155,78.761626"
       id="path843-5"
       inkscape:connector-curvature="0" />
    <path
       style="fill:none;stroke:#000000;stroke-width:1.72198832;stroke-linecap:butt;stroke-linejoin:miter;stroke-miterlimit:4;stroke-dasharray:none;stroke-opacity:1"
       d="m 23.075817,78.542555 -3.943278,1.752569"
       id="path847-2"
       inkscape:connector-curvature="0"
       sodipodi:nodetypes="cc" />
    <path
       style="fill:none;stroke:#000000;stroke-width:1.72198832;stroke-linecap:butt;stroke-linejoin:miter;stroke-miterlimit:4;stroke-dasharray:none;stroke-opacity:1"
       d="m 23.733034,81.171406 -2.409785,2.190715"
       id="path849-2"
       inkscape:connector-curvature="0" />
    <path
       style="fill:none;stroke:#000000;stroke-width:1.72198832;stroke-linecap:butt;stroke-linejoin:miter;stroke-miterlimit:4;stroke-dasharray:none;stroke-opacity:1"
       d="m 25.704668,82.485834 -3.066991,4.381419"
       id="path851-7"
       inkscape:connector-curvature="0" />
    <path
       style="fill:none;stroke:#000000;stroke-width:1.72198832;stroke-linecap:butt;stroke-linejoin:miter;stroke-miterlimit:4;stroke-dasharray:none;stroke-opacity:1"
       d="m 27.457237,83.143045 -1.314423,6.572134"
       id="path853-3"
       inkscape:connector-curvature="0" />
    <path
       style="fill:none;stroke:#000000;stroke-width:1.72198832;stroke-linecap:butt;stroke-linejoin:miter;stroke-miterlimit:4;stroke-dasharray:none;stroke-opacity:1"
       d="m 30.305163,85.33376 -0.657216,5.695842"
       id="path855-7"
       inkscape:connector-curvature="0" />
    <path
       style="fill:none;stroke:#000000;stroke-width:1.72198832;stroke-linecap:butt;stroke-linejoin:miter;stroke-miterlimit:4;stroke-dasharray:none;stroke-opacity:1"
       d="m 32.495873,85.771901 0.21907,6.353058"
       id="path857-9"
       inkscape:connector-curvature="0" />
    <path
       style="fill:none;stroke:#000000;stroke-width:1.72198832;stroke-linecap:butt;stroke-linejoin:miter;stroke-miterlimit:4;stroke-dasharray:none;stroke-opacity:1"
       d="m 36.00101,84.895614 1.533499,7.229345"
       id="path859-0"
       inkscape:connector-curvature="0"
       sodipodi:nodetypes="cc" />
    <path
       style="fill:none;stroke:#000000;stroke-width:1.72198832;stroke-linecap:butt;stroke-linejoin:miter;stroke-miterlimit:4;stroke-dasharray:none;stroke-opacity:1"
       d="m 38.629861,83.800261 1.971639,6.57213"
       id="path861-2"
       inkscape:connector-curvature="0" />
    <path
       style="fill:none;stroke:#000000;stroke-width:1.72198832;stroke-linecap:butt;stroke-linejoin:miter;stroke-miterlimit:4;stroke-dasharray:none;stroke-opacity:1"
       d="m 41.039639,82.485834 3.505138,5.914923"
       id="path863-3"
       inkscape:connector-curvature="0"
       sodipodi:nodetypes="cc" />
    <path
       style="fill:none;stroke:#000000;stroke-width:1.72198832;stroke-linecap:butt;stroke-linejoin:miter;stroke-miterlimit:4;stroke-dasharray:none;stroke-opacity:1"
       d="m 42.573138,80.076053 4.381419,4.60049"
       id="path865-9"
       inkscape:connector-curvature="0" />
    <path
       style="fill:none;stroke:#000000;stroke-width:1.72198832;stroke-linecap:butt;stroke-linejoin:miter;stroke-miterlimit:4;stroke-dasharray:none;stroke-opacity:1"
       d="m 44.325706,78.323485 3.943279,1.971639"
       id="path867-9"
       inkscape:connector-curvature="0" />
    <path
       style="color:#000000;font-style:normal;font-variant:normal;font-weight:normal;font-stretch:normal;font-size:medium;line-height:normal;font-family:sans-serif;font-variant-ligatures:normal;font-variant-position:normal;font-variant-caps:normal;font-variant-numeric:normal;font-variant-alternates:normal;font-feature-settings:normal;text-indent:0;text-align:start;text-decoration:none;text-decoration-line:none;text-decoration-style:solid;text-decoration-color:#000000;letter-spacing:normal;word-spacing:normal;text-transform:none;writing-mode:lr-tb;direction:ltr;text-orientation:mixed;dominant-baseline:auto;baseline-shift:baseline;text-anchor:start;white-space:normal;shape-padding:0;clip-rule:nonzero;display:inline;overflow:visible;visibility:visible;opacity:1;isolation:auto;mix-blend-mode:normal;color-interpolation:sRGB;color-interpolation-filters:linearRGB;solid-color:#000000;solid-opacity:1;vector-effect:none;fill:#000000;fill-opacity:1;fill-rule:nonzero;stroke:none;stroke-width:0.1;stroke-linecap:butt;stroke-linejoin:miter;stroke-miterlimit:4;stroke-dasharray:none;stroke-dashoffset:0;stroke-opacity:1;color-rendering:auto;image-rendering:auto;shape-rendering:auto;text-rendering:auto;enable-background:accumulate"
       d="m 29.818604,69.101807 -0.07535,0.01687 c 0,0 -4.132653,0.911067 -6.139036,1.869305 -1.61244,0.770085 -4.034214,2.654436 -4.571652,3.076689 L 8.9327894,73.52487 l -0.08899,0.743037 13.2153536,2.473051 0.174444,0.103839 0.130307,-0.01808 c 0,0 8.059785,-1.11229 12.023932,-1.04334 3.651038,0.0635 10.600786,1.239096 11.418167,1.379101 l -0.136571,0.141618 0.512025,-0.07849 0.08354,0.01454 0.04495,-0.03434 13.08182,-2.006383 -0.04859,-0.745457 -10.076744,-0.222225 C 49.14004,74.115805 48.641157,73.660189 47.924403,73.063653 47.110456,72.386225 46.119894,71.611997 45.320646,71.194342 44.292868,70.657276 42.722691,70.17037 41.389909,69.80302 40.057128,69.43567 38.967874,69.195846 38.967874,69.195846 l -0.07182,-0.01586 -0.07252,0.01253 c 0,0 -3.007822,0.508792 -4.42539,0.498288 -1.446489,-0.01072 -4.503674,-0.574753 -4.503674,-0.574753 z"
       id="path871-7"
       inkscape:connector-curvature="0"
       sodipodi:nodetypes="ccccccccccccccccccscscccccc" />
    <path
       style="opacity:1;fill:#806600;fill-opacity:1;stroke:#000000;stroke-width:0.56153643;stroke-miterlimit:4;stroke-dasharray:none;stroke-opacity:1"
       d="m 43.419682,84.775598 c -0.753355,-1.271001 -1.374591,-2.330001 -1.380523,-2.353336 -0.0059,-0.02334 0.159621,-0.223032 0.367903,-0.443773 l 0.378692,-0.401343 1.451272,1.525114 c 0.798204,0.838813 1.555877,1.635274 1.683723,1.769915 l 0.232444,0.244805 -0.223921,0.441498 c -0.123155,0.242819 -0.321166,0.577049 -0.440029,0.742721 -0.239773,0.334225 -0.624888,0.785316 -0.670451,0.785316 -0.01616,0 -0.645761,-1.039911 -1.39911,-2.310917 z"
       id="path884-0"
       inkscape:connector-curvature="0" />
    <path
       style="opacity:1;fill:#806600;fill-opacity:1;stroke:#000000;stroke-width:0.56153643;stroke-miterlimit:4;stroke-dasharray:none;stroke-opacity:1"
       d="m 45.404173,81.770631 c -0.774481,-0.814014 -1.416172,-1.500921 -1.425972,-1.526464 -0.0182,-0.04743 0.561616,-0.786806 0.617006,-0.786806 0.03024,0 2.744041,1.348732 2.777962,1.380622 0.0356,0.03347 -0.419853,2.031543 -0.532504,2.336061 -0.02392,0.06465 -0.248115,-0.154387 -1.436492,-1.403413 z"
       id="path886-3"
       inkscape:connector-curvature="0" />
    <path
       style="opacity:1;fill:#806600;fill-opacity:1;stroke:#000000;stroke-width:0.56153643;stroke-miterlimit:4;stroke-dasharray:none;stroke-opacity:1"
       d="m 46.653002,78.496795 -0.973588,-0.491679 0.285476,-0.384618 c 0.157009,-0.21154 0.302966,-0.402109 0.324346,-0.423489 0.03684,-0.03684 1.632538,-0.301348 1.660315,-0.275221 0.01077,0.01014 -0.06128,0.645912 -0.216014,1.906269 -0.01111,0.09052 -0.03972,0.16365 -0.06358,0.162502 -0.02385,-0.0011 -0.481486,-0.223338 -1.016955,-0.493764 z"
       id="path888-9"
       inkscape:connector-curvature="0" />
    <path
       style="opacity:1;fill:#806600;fill-opacity:1;stroke:#000000;stroke-width:0.56153643;stroke-miterlimit:4;stroke-dasharray:none;stroke-opacity:1"
       d="m 41.314647,89.675119 c -0.01056,-0.0286 -0.368508,-1.219619 -0.79544,-2.646693 -0.426933,-1.427079 -0.783831,-2.616578 -0.793109,-2.643337 -0.01713,-0.04943 0.845106,-0.71424 0.936184,-0.721822 0.05456,-0.0046 2.809293,4.617272 2.789661,4.680424 -0.01918,0.06168 -0.827714,0.631187 -1.274372,0.897621 -0.72083,0.429964 -0.841885,0.490825 -0.862924,0.433807 z"
       id="path890-8"
       inkscape:connector-curvature="0" />
    <path
       style="opacity:1;fill:#806600;fill-opacity:1;stroke:#000000;stroke-width:0.56153643;stroke-miterlimit:4;stroke-dasharray:none;stroke-opacity:1"
       d="m 38.179298,90.913853 c -0.0095,-0.02832 -0.24554,-1.131963 -0.52452,-2.452546 -0.27898,-1.320577 -0.516643,-2.438617 -0.52814,-2.484532 -0.01469,-0.05867 0,-0.0903 0.05016,-0.106419 0.03908,-0.01261 0.279104,-0.135863 0.533394,-0.273886 0.254285,-0.138029 0.464708,-0.246983 0.467605,-0.242127 0.0029,0.0049 0.341434,1.132305 0.752309,2.505432 0.410876,1.373128 0.754746,2.516665 0.764158,2.541195 0.019,0.0495 -0.100151,0.101966 -0.781168,0.34402 -0.584563,0.20777 -0.710966,0.236856 -0.733794,0.168863 z"
       id="path892-6"
       inkscape:connector-curvature="0" />
    <path
       style="opacity:1;fill:#806600;fill-opacity:1;stroke:#000000;stroke-width:0.56153643;stroke-miterlimit:4;stroke-dasharray:none;stroke-opacity:1"
       d="M 33.807575,91.94642 C 33.7046,91.91813 33.612978,91.8876 33.603968,91.87859 c -0.009,-0.009 -0.05017,-1.00813 -0.09146,-2.220276 -0.0413,-1.212146 -0.08455,-2.395594 -0.09613,-2.62989 l -0.02105,-0.425998 0.7451,-0.0033 c 0.503047,-0.0022 0.836304,-0.0223 1.025865,-0.0618 0.154423,-0.03217 0.280863,-0.04812 0.280981,-0.03543 0,0.01269 0.234964,1.128648 0.521888,2.479909 0.286918,1.351261 0.515753,2.46276 0.508518,2.46999 -0.03433,0.03433 -2.371597,0.558286 -2.451335,0.54953 -0.01734,-0.0019 -0.115786,-0.02661 -0.218766,-0.05491 z"
       id="path894-5"
       inkscape:connector-curvature="0" />
    <path
       style="opacity:1;fill:#806600;fill-opacity:1;stroke:#000000;stroke-width:0.56153643;stroke-miterlimit:4;stroke-dasharray:none;stroke-opacity:1"
       d="m 31.148454,91.243801 c -0.330108,-0.09613 -0.604428,-0.179005 -0.6096,-0.184177 -0.01089,-0.01089 0.526175,-4.726081 0.552313,-4.849086 l 0.01744,-0.08209 0.257792,0.07148 c 0.141783,0.03932 0.261235,0.07625 0.265445,0.08208 0.0042,0.0058 0.03727,0.925517 0.07347,2.043749 0.0362,1.118232 0.07651,2.27277 0.08959,2.565642 0.01382,0.309617 0.0091,0.531377 -0.01123,0.52983 -0.01925,-0.0014 -0.305102,-0.08131 -0.635216,-0.177437 z"
       id="path896-7"
       inkscape:connector-curvature="0" />
    <path
       style="opacity:1;fill:#806600;fill-opacity:1;stroke:#000000;stroke-width:0.56153643;stroke-miterlimit:4;stroke-dasharray:none;stroke-opacity:1"
       d="m 28.329428,90.280633 c -0.2192,-0.09338 -0.599241,-0.267007 -0.844527,-0.385828 -0.353505,-0.171242 -0.441963,-0.229838 -0.426613,-0.282595 0.01064,-0.03661 0.223342,-1.094748 0.472657,-2.351428 0.249315,-1.25668 0.46598,-2.299254 0.481485,-2.316833 0.0155,-0.01758 0.156699,0.03291 0.313776,0.112206 0.157076,0.07929 0.459867,0.219645 0.672861,0.311894 0.364536,0.157883 0.386754,0.174029 0.378479,0.275059 -0.01644,0.200897 -0.514455,4.560316 -0.535406,4.68676 -0.01147,0.06922 -0.04184,0.124671 -0.06751,0.123212 -0.02566,-0.0014 -0.226,-0.07906 -0.445205,-0.172447 z"
       id="path898-6"
       inkscape:connector-curvature="0" />
    <path
       style="opacity:1;fill:#806600;fill-opacity:1;stroke:#000000;stroke-width:0.56153643;stroke-miterlimit:4;stroke-dasharray:none;stroke-opacity:1"
       d="m 25.0486,88.313809 c -0.389827,-0.327595 -1.256205,-1.194903 -1.328428,-1.32985 -0.03262,-0.06095 0.134295,-0.320215 1.0322,-1.603219 0.589109,-0.841776 1.107521,-1.580266 1.152019,-1.641097 l 0.08091,-0.110598 0.199858,0.149211 c 0.10992,0.08206 0.199883,0.16727 0.199909,0.189348 0,0.07198 -0.892734,4.530438 -0.921545,4.601891 -0.02387,0.05919 -0.08522,0.02139 -0.414925,-0.255686 z"
       id="path900-2"
       inkscape:connector-curvature="0" />
    <path
       style="opacity:1;fill:#806600;fill-opacity:1;stroke:#000000;stroke-width:0.56153643;stroke-miterlimit:4;stroke-dasharray:none;stroke-opacity:1"
       d="m 22.304853,84.655391 c -0.184068,-0.364376 -0.334669,-0.669458 -0.334669,-0.677966 0,-0.02726 2.252781,-2.060919 2.282984,-2.060919 0.01598,0 0.116116,0.115015 0.22252,0.255593 l 0.193455,0.255594 -0.933166,1.333527 c -0.513245,0.733438 -0.969912,1.383735 -1.014813,1.445097 l -0.08164,0.111576 z"
       id="path902-7"
       inkscape:connector-curvature="0" />
    <path
       style="opacity:1;fill:#806600;fill-opacity:1;stroke:#000000;stroke-width:0.56153643;stroke-miterlimit:4;stroke-dasharray:none;stroke-opacity:1"
       d="m 19.731578,78.435986 c -0.339463,-0.971391 -0.710537,-2.122474 -0.690636,-2.142375 0.03481,-0.03481 2.55836,0.452012 2.670561,0.515175 0.07021,0.03953 0.153399,0.0532 0.2329,0.03829 l 0.123677,-0.0232 0.166081,0.527271 c 0.09134,0.289996 0.16081,0.53087 0.154366,0.535276 -0.0064,0.0044 -0.563877,0.252941 -1.238744,0.552313 l -1.227031,0.544307 z"
       id="path904-0"
       inkscape:connector-curvature="0" />
    <path
       style="opacity:1;fill:#806600;fill-opacity:1;stroke:#000000;stroke-width:0.56153643;stroke-miterlimit:4;stroke-dasharray:none;stroke-opacity:1"
       d="m 21.15993,82.200104 c -0.01978,-0.04948 -0.168067,-0.419517 -0.329539,-0.822299 -0.161473,-0.402786 -0.289117,-0.736566 -0.283661,-0.741738 0.02777,-0.0263 2.480002,-1.103214 2.489756,-1.093387 0.0063,0.0063 0.08038,0.170554 0.164674,0.364955 0.08429,0.194407 0.268487,0.576625 0.409319,0.849384 0.140837,0.272753 0.251709,0.500274 0.246388,0.505601 -0.0053,0.0053 -0.156472,-0.154703 -0.335875,-0.355615 -0.179408,-0.200913 -0.344682,-0.364852 -0.367283,-0.364309 -0.0226,5.17e-4 -0.215362,0.159549 -0.428356,0.353345 -0.212998,0.193796 -0.644266,0.58673 -0.958368,0.873194 -0.543174,0.495366 -0.57286,0.516436 -0.607055,0.430869 z"
       id="path906-3"
       inkscape:connector-curvature="0" />
    <path
       style="opacity:1;fill:#ffffff;fill-opacity:1;stroke:none;stroke-width:0.1;stroke-miterlimit:4;stroke-dasharray:none;stroke-opacity:1"
       d="m 31.811711,84.424984 c -2.977452,-0.849006 -5.381595,-2.393929 -6.367694,-4.091936 -0.451195,-0.776927 -1.535748,-3.485469 -1.435711,-3.585506 0.04091,-0.04091 1.284059,-0.21333 2.762551,-0.38315 3.517312,-0.403997 8.231554,-0.542274 10.520559,-0.308594 2.554641,0.260807 6.554496,0.821348 6.688502,0.937335 0.1492,0.129144 -1.599304,2.335674 -3.073932,3.879149 -0.636828,0.666556 -1.674743,1.56924 -2.306483,2.005964 -1.093682,0.756059 -2.849411,1.714737 -3.140389,1.714737 -0.128012,0 -0.893747,-4.00295 -0.784261,-4.09977 0.02805,-0.0248 0.69693,-0.410597 1.48641,-0.857323 0.789479,-0.446731 1.47665,-0.87895 1.527044,-0.960488 0.138101,-0.223451 -0.269878,-1.534672 -0.505653,-1.625152 -0.194169,-0.07451 -7.96777,0.53207 -8.065014,0.62932 -0.121138,0.121133 -0.320323,1.582682 -0.228468,1.676404 0.05782,0.059 0.90677,0.463457 1.886554,0.898795 0.979784,0.435337 1.858186,0.875025 1.952007,0.977074 0.145285,0.158033 0.681405,2.779075 0.681405,3.331325 0,0.248674 -0.345556,0.218781 -1.597427,-0.138184 z"
       id="path910-9"
       inkscape:connector-curvature="0" />
  </g>
</svg>
