<?xml version="1.0" encoding="UTF-8" standalone="no"?>
<svg
   xmlns:dc="http://purl.org/dc/elements/1.1/"
   xmlns:cc="http://creativecommons.org/ns#"
   xmlns:rdf="http://www.w3.org/1999/02/22-rdf-syntax-ns#"
   xmlns:svg="http://www.w3.org/2000/svg"
   xmlns="http://www.w3.org/2000/svg"
   xmlns:sodipodi="http://sodipodi.sourceforge.net/DTD/sodipodi-0.dtd"
   xmlns:inkscape="http://www.inkscape.org/namespaces/inkscape"
   height="48"
   width="48"
   version="1.1"
   id="svg18"
   sodipodi:docname="sillouette.svg"
   inkscape:version="0.92.2 5c3e80d, 2017-08-06">
  <metadata
     id="metadata24">
    <rdf:RDF>
      <cc:Work
         rdf:about="">
        <dc:format>image/svg+xml</dc:format>
        <dc:type
           rdf:resource="http://purl.org/dc/dcmitype/StillImage" />
      </cc:Work>
    </rdf:RDF>
  </metadata>
  <defs
     id="defs22" />
  <sodipodi:namedview
     pagecolor="#ffffff"
     bordercolor="#666666"
     borderopacity="1"
     objecttolerance="10"
     gridtolerance="10"
     guidetolerance="10"
     inkscape:pageopacity="0"
     inkscape:pageshadow="2"
     inkscape:window-width="1022"
     inkscape:window-height="670"
     id="namedview20"
     showgrid="false"
     inkscape:zoom="6.9532167"
     inkscape:cx="30.665658"
     inkscape:cy="26.256093"
     inkscape:window-x="0"
     inkscape:window-y="0"
     inkscape:window-maximized="0"
     inkscape:current-layer="svg18" />
  <g
     stroke="#000"
     id="g8" />
  <path
     style="opacity:1;fill:#000000;fill-opacity:1;fill-rule:nonzero;stroke:none;stroke-width:0.96655995;stroke-linecap:butt;stroke-linejoin:round;stroke-miterlimit:4;stroke-dasharray:none;stroke-opacity:1;paint-order:stroke markers fill"
     d="M 23.248047 -0.16796875 A 23.801933 24.017658 0 0 0 20.875 0.021484375 A 23.801933 24.017658 0 0 0 0.3359375 26.886719 A 23.801933 24.017658 0 0 0 26.916016 47.667969 L 27.115234 47.642578 A 23.801933 24.017658 0 0 0 47.542969 20.691406 A 23.801933 24.017658 0 0 0 23.248047 -0.16796875 z M 29.146484 5.4570312 C 30.184693 5.4949612 31.215016 5.6686758 32.224609 6.0253906 C 35.009822 7.1526915 37.173132 9.3770341 39.359375 11.388672 C 40.820198 12.803108 42.077025 15.095268 41.042969 17.123047 C 40.063818 18.939301 38.346392 20.296211 36.519531 21.140625 C 34.948065 21.735282 33.250504 21.899102 31.619141 22.158203 L 28.802734 23.935547 L 29.671875 27.970703 C 27.169507 29.223732 24.585705 30.632071 21.753906 30.796875 C 18.605981 30.629522 15.618188 29.419094 12.714844 28.257812 C 12.637414 26.318611 12.597864 22.095191 12.427734 21.054688 C 11.42945 19.585034 10.447115 18.079816 9.0253906 16.994141 C 8.3265916 16.339168 7.4774258 15.495569 7.7070312 14.427734 C 8.2810445 11.783207 10.954635 10.51475 13.226562 9.6992188 C 15.918604 8.8004363 18.654495 8.0403967 21.300781 6.9980469 C 23.468409 6.2568488 25.793155 5.5670801 28.107422 5.4628906 C 28.454563 5.4472696 28.800415 5.4443883 29.146484 5.4570312 z M 18.900391 32.359375 C 19.021614 32.381975 19.141986 32.403968 19.263672 32.423828 C 20.379255 32.666834 21.526451 32.656167 22.644531 32.433594 C 24.376554 32.667211 25.964559 33.22272 27.451172 34.607422 L 31.388672 34.695312 C 31.667358 34.693614 32.009406 34.626288 31.90625 35.033203 C 30.405347 35.262253 28.792796 35.559386 27.267578 35.751953 C 27.189015 36.640042 26.895813 39.182382 26.001953 40.263672 C 25.372788 41.02454 24.603697 41.551902 23.705078 41.945312 C 23.264593 42.138155 22.790295 42.298814 22.289062 42.4375 C 21.802352 42.572167 21.291542 42.690451 20.75 42.794922 C 19.97927 42.609226 19.356683 42.426887 18.787109 42.236328 C 17.683858 41.867219 16.862452 41.436859 16.128906 40.685547 C 15.998305 40.551829 15.868917 40.370921 15.740234 40.181641 C 15.474327 39.790522 15.220423 39.303903 14.980469 38.78125 C 14.73691 38.250746 14.523994 37.73102 14.332031 37.212891 C 13.991903 36.294851 13.778154 35.617639 13.708984 35.386719 C 12.526171 35.164594 11.343792 34.939152 10.164062 34.712891 C 9.8862075 34.670416 9.5384802 34.682807 9.7148438 34.298828 C 11.436053 34.390568 13.116869 34.314788 14.507812 34.330078 C 15.637537 33.429597 17.531077 32.676243 18.900391 32.359375 z "
     id="path853" />
</svg>
