<svg xmlns="http://www.w3.org/2000/svg" width="200" height="300"><text style="line-height:1.25;-inkscape-font-specification:'Titan One'" x="7.428" y="234.797" font-weight="400" font-size="46.696" font-family="Titan One" letter-spacing="0" word-spacing="0" fill="#504" stroke="#1a1a1a" stroke-width=".849" paint-order="stroke markers fill"><tspan x="7.428" y="234.797"><tspan font-size="49.809">F</tspan><tspan font-size="43.583">EED</tspan><tspan font-size="49.809">M</tspan><tspan font-size="43.583">E</tspan></tspan></text><text style="line-height:1.25" x="72.418" y="248.897" font-weight="400" font-size="52.336" font-family="sans-serif" letter-spacing="0" word-spacing="0" fill="#55d400" stroke="#1a1a1a" stroke-width=".849" paint-order="stroke markers fill"><tspan x="72.418" y="248.897" style="-inkscape-font-specification:'Lily Script One'" font-size="27.912" font-family="Lily Script One">Jefferson</tspan></text><path fill="#fff" d="M68.153 149.228h43.087v17.179H68.153z"/><g stroke="#000"><path d="M114.399 151.096s-.865 14.023-5.156 19.106c-4.907 5.812-11.967 8.149-20.842 9.826-8.98-2.12-13.921-3.766-18.334-8.192-4.977-4.99-9.852-21.387-9.852-21.387l7.938-1.221s2.267 9.28 5.564 12.479c3.78 3.663 10.562 6.026 14.694 6.132 3.696.096 7.277-2.356 10.304-4.548 4.043-2.924 9.95-11.08 9.95-11.08z" fill="#806600" stroke-width="3.30044"/><path d="M80.001 155.571l14.14-1.122-6.539 3.773zm9.328 12.199l-1.727-9.548m-17.574-2.869l-7.245 3.057m8.901.399l-6.244 5.7m8.594-2.588l-5.568 8.04m8.271-5.91l-2.293 11.118m7.492-8.65l-1.327 11.376m5.125-10.346l.357 11.881m5.937-12.29l2.495 11.567m1.987-13.898l3.624 11.941m.248-14.848l6.449 10.614m-3.208-14.05l7.617 7.94m-4.868-11.208l7.01 3.46" fill="none" stroke-width="3.30044"/></g><path d="M81.064 139.492c-5.432 1.23-12.947 4.158-17.43 7.657-5.518-.06-12.181.23-19.01-.126-.7 1.492.677 1.452 1.779 1.617 7.205 1.354 14.515 2.591 21.65 4.01 14.358-2.99 26.507-4.128 40.9.571 7.492-.567 15.974-2.188 23.704-3.343.409-1.58-.94-1.32-2.047-1.314l-15.62-.336c-5.898-5.38-12.206-7.542-19.077-8.45-4.436.865-8.977.905-13.403-.039a65.943 65.943 0 01-1.446-.247z" color="#000"/><path d="M36.654 69.826c2.277-10.274 12.884-15.202 21.898-18.37 10.68-3.492 21.535-6.446 32.034-10.496 13.76-4.607 29.103-8.713 43.345-3.785 11.05 4.38 19.63 13.026 28.304 20.842 5.796 5.495 10.78 14.4 6.677 22.278-3.885 7.056-10.7 12.327-17.948 15.608-6.234 2.31-12.967 2.947-19.44 3.954l-11.171 6.907 3.442 15.674c-9.928 4.868-20.176 10.337-31.41 10.977-12.49-.65-24.341-5.346-35.86-9.858L55.38 95.573c-3.96-5.71-7.858-11.565-13.499-15.783-2.772-2.545-6.138-5.815-5.227-9.964z" fill="#fff" stroke="#000" stroke-width="3.960528" stroke-linecap="round" stroke-linejoin="round" paint-order="markers fill stroke"/><path d="M55.38 95.573s22.186 8.254 33.883 10.165c10.211 1.663 30.67 1.782 30.67 1.782" fill="none" stroke="#000" stroke-width="3.960528" stroke-linecap="round" stroke-linejoin="round" paint-order="markers fill stroke"/><path d="M63.94 73.708s-2.565 7.47-1.865 11.189c1.09 5.796 9.1 15.568 9.1 15.568M77.463 86.057s-1.597 5.337-.924 7.918c1.043 3.977 7.307 10.307 7.307 10.307" fill="none" stroke="#000" stroke-width="3.960528" stroke-linecap="round" paint-order="markers fill stroke"/></svg>